<svg xmlns="http://www.w3.org/2000/svg" width="77.584" height="93.477" viewBox="0 0 77.584 93.477"><g transform="translate(-6.496 -2.5)"><g transform="translate(6.496 2.5)"><path d="M52.317,95.977H18.387a1,1,0,0,1-.832-.449l-5.669-8.651a31.918,31.918,0,0,1,0-35.5l.738-1.115a18.344,18.344,0,0,1,15.289-7.985h.477V3.494a.994.994,0,0,1,.994-.994H41.318a.994.994,0,0,1,.994.994V42.278h.478a18.347,18.347,0,0,1,15.29,7.987l.734,1.111a31.916,31.916,0,0,1,0,35.5L53.15,95.529A1,1,0,0,1,52.317,95.977ZM18.924,93.988H51.78l5.374-8.2h0a29.953,29.953,0,0,0,0-33.318l-.734-1.111a16.338,16.338,0,0,0-13.63-7.091H41.318a.994.994,0,0,1-.994-.994V4.489H30.379V43.272a.994.994,0,0,1-.994.994H27.914a16.336,16.336,0,0,0-13.628,7.089l-.738,1.115a29.954,29.954,0,0,0,0,33.316Z" transform="translate(-6.496 -2.5)"/><g transform="translate(63.661 53.702)"><path d="M48.853,69.018H42.079A3.578,3.578,0,0,1,38.5,65.445V33.077A3.579,3.579,0,0,1,42.079,29.5h6.774a3.579,3.579,0,0,1,3.574,3.576V65.444A3.577,3.577,0,0,1,48.853,69.018ZM42.079,31.49a1.589,1.589,0,0,0-1.586,1.587V65.445a1.587,1.587,0,0,0,1.586,1.585h6.774a1.587,1.587,0,0,0,1.585-1.585V33.077a1.588,1.588,0,0,0-1.585-1.587H42.079Z" transform="translate(-38.504 -29.501)"/></g><g transform="translate(69.628 15.913)"><path d="M42.5,52.267a.994.994,0,0,1-.994-.994V11.5a.994.994,0,0,1,1.989,0V51.273A.994.994,0,0,1,42.5,52.267Z" transform="translate(-41.504 -10.501)"/></g><g transform="translate(63.887 0.002)"><path d="M45.353,20.4a.993.993,0,0,1-.935-.656L38.677,3.833A.995.995,0,0,1,39.612,2.5H51.095a.995.995,0,0,1,.935,1.332L46.288,19.744A.993.993,0,0,1,45.353,20.4ZM41.028,4.49l4.325,11.988L49.679,4.49H41.028Z" transform="translate(-38.618 -2.501)"/></g><g transform="translate(21.895 27.846)"><path d="M30.432,18.49H18.5a.994.994,0,0,1,0-1.989H30.432a.994.994,0,0,1,0,1.989Z" transform="translate(-17.504 -16.501)"/></g><g transform="translate(2.006 63.646)"><path d="M20.432,36.49H8.5a.994.994,0,0,1,0-1.989H20.432a.994.994,0,1,1,0,1.989Z" transform="translate(-7.504 -34.501)"/></g><g transform="translate(2.006 71.602)"><path d="M14.465,40.49H8.5a.994.994,0,1,1,0-1.989h5.967a.994.994,0,1,1,0,1.989Z" transform="translate(-7.504 -38.501)"/></g></g></g></svg>