<svg xmlns="http://www.w3.org/2000/svg" width="67.133" height="90.15" viewBox="0 0 67.133 90.15"><g transform="translate(-8.5 -2.5)"><g transform="translate(8.5 2.5)"><g transform="translate(0 0.001)"><path d="M21.014,16.653H9.459a.959.959,0,0,1-.7-1.617L20.318,2.8a.959.959,0,0,1,1.656.658V15.694A.958.958,0,0,1,21.014,16.653Zm-9.33-1.918h8.371V5.871Z" transform="translate(-8.5 -2.501)"/></g><path d="M74.674,92.65H9.459a.958.958,0,0,1-.959-.959v-76a.958.958,0,0,1,.262-.658L20.318,2.8a.955.955,0,0,1,.7-.3H74.674a.958.958,0,0,1,.959.959V91.691A.958.958,0,0,1,74.674,92.65ZM10.418,90.732h63.3V4.418H21.428L10.418,16.075Z" transform="translate(-8.5 -2.5)"/><g transform="translate(34.526 13.466)"><path d="M42.976,28.662a.953.953,0,0,1-.427-.1l-5.5-2.736-5.5,2.736a.959.959,0,0,1-1.371-1.03l1.04-5.726L26.809,17.74a.959.959,0,0,1,.519-1.655l6.136-.844L36.2,10a1,1,0,0,1,1.7,0l2.735,5.244,6.136.844a.959.959,0,0,1,.519,1.655l-4.407,4.066,1.038,5.726a.962.962,0,0,1-.369.938A.952.952,0,0,1,42.976,28.662ZM37.049,23.8a.966.966,0,0,1,.427.1l4.215,2.1-.79-4.363a.961.961,0,0,1,.294-.877l3.3-3.045-4.614-.635a.958.958,0,0,1-.719-.507l-2.113-4.052-2.113,4.052a.958.958,0,0,1-.719.507l-4.614.635,3.3,3.045a.961.961,0,0,1,.294.877l-.792,4.363,4.216-2.1A.966.966,0,0,1,37.049,23.8Z" transform="translate(-26.5 -9.521)"/></g><g transform="translate(9.59 55.624)"><path d="M60.493,33.418H14.459a.959.959,0,0,1,0-1.918H60.493a.959.959,0,0,1,0,1.918Z" transform="translate(-13.5 -31.5)"/></g><g transform="translate(9.59 65.215)"><path d="M60.493,38.418H14.459a.959.959,0,1,1,0-1.918H60.493a.959.959,0,1,1,0,1.918Z" transform="translate(-13.5 -36.5)"/></g><g transform="translate(9.59 74.805)"><path d="M37.476,43.418H14.459a.959.959,0,1,1,0-1.918H37.476a.959.959,0,1,1,0,1.918Z" transform="translate(-13.5 -41.5)"/></g></g></g></svg>