<svg xmlns="http://www.w3.org/2000/svg" width="76.442" height="46.066" viewBox="0 0 76.442 46.066"><defs><style>.a{stroke:#000;stroke-width:0.5px;}</style></defs><g transform="translate(-4.75 -22.75)"><g transform="translate(5 23)"><path class="a" d="M11.75,975.362A6.754,6.754,0,0,0,5,982.113v32.065a6.754,6.754,0,0,0,6.75,6.751H74.192a6.754,6.754,0,0,0,6.75-6.751V982.112a6.754,6.754,0,0,0-6.75-6.75Zm0,1.688H74.192a5.035,5.035,0,0,1,3.349,1.266l-31.485,24.55a4.784,4.784,0,0,1-6.223,0L8.4,978.315a5.035,5.035,0,0,1,3.349-1.266Zm-4.43,2.584,31.458,24.55a6.654,6.654,0,0,0,8.333,0l31.511-24.549a5.1,5.1,0,0,1,.633,2.479v32.065a5.033,5.033,0,0,1-5.063,5.063H11.75a5.033,5.033,0,0,1-5.063-5.063V982.113a5.1,5.1,0,0,1,.633-2.479Z" transform="translate(-5 -975.362)"/></g></g></svg>