<svg xmlns="http://www.w3.org/2000/svg" width="52.492" height="68.585" viewBox="0 0 52.492 68.585"><g transform="translate(0 0)"><path d="M26.246,0A26.275,26.275,0,0,1,36.879,50.289l-10.633,18.3-10.633-18.3A26.275,26.275,0,0,1,26.246,0Zm0,2.586a23.7,23.7,0,0,0-8.813,45.691l8.813,15.23,8.813-15.23A23.7,23.7,0,0,0,26.246,2.586Zm0,14.177a9.531,9.531,0,1,1-9.579,9.483A9.525,9.525,0,0,1,26.246,16.763Zm0,2.491a6.993,6.993,0,1,0,6.993,6.993A7.032,7.032,0,0,0,26.246,19.254Z" transform="translate(0 0)"/></g></svg>