<svg xmlns="http://www.w3.org/2000/svg" width="93.43" height="99.703" viewBox="0 0 93.43 99.703"><g transform="translate(-8.322 -1775)"><g transform="translate(8.322 1775)"><g transform="translate(0 0)"><path d="M8350.842,5689a35.84,35.84,0,1,1-25.344,10.5A35.736,35.736,0,0,1,8350.842,5689Zm24.007,11.834a33.936,33.936,0,1,0,9.943,24A33.851,33.851,0,0,0,8374.849,5700.834Z" transform="translate(-8304.109 -5680.599)"/><path d="M4417.651,1852.194a.944.944,0,0,1-1.183,1.473,44.272,44.272,0,1,1,55.606-.039.943.943,0,0,1-1.19-1.464,42.384,42.384,0,1,0-53.233.03Z" transform="translate(-4397.515 -1775)"/><path d="M22969.277,19411.766a.944.944,0,0,1,1.393,1.273l-27.574,30.088a.94.94,0,1,1-1.387-1.27Z" transform="translate(-22899.164 -19373.602)"/><path d="M29015.359,25470.877a.942.942,0,1,1,1.4,1.258l-14.949,16.7a.944.944,0,0,1-1.406-1.26Z" transform="translate(-28944.863 -25419.699)"/><path d="M3243.639,39938h92.411l.019.926c.116,5.27-.7,9.414-2.744,12.273-2.106,2.945-5.443,4.5-10.317,4.5l-65.044.082c-6.935-.336-10.838-2.012-12.994-4.926s-2.46-6.895-2.274-11.941l.034-.914Zm90.556,1.891h-89.641c-.1,4.219.234,7.539,1.932,9.836,1.81,2.449,5.273,3.863,11.566,4.172l64.956-.086c4.207,0,7.042-1.281,8.78-3.707C3333.467,39947.758,3334.2,39944.313,3334.2,39939.891Z" transform="translate(-3242.651 -39856.078)"/></g></g></g></svg>