<svg xmlns="http://www.w3.org/2000/svg" width="69.346" height="69.346" viewBox="0 0 69.346 69.346"><g transform="translate(-5 -5.001)"><g transform="translate(5 5.001)"><path d="M52.8,24.019A22.549,22.549,0,0,1,69.926,41.141a1.156,1.156,0,1,0,2.265-.466,24.859,24.859,0,0,0-18.92-18.92,1.156,1.156,0,0,0-.467,2.264Z" transform="translate(-15.758 -8.84)"/><path d="M61.462,50.3a8.466,8.466,0,0,0-11.959,0l-2.709,2.709a4.046,4.046,0,0,1-5.189.416,58.7,58.7,0,0,1-7.832-6.577A58.8,58.8,0,0,1,27.2,39.021a4.045,4.045,0,0,1,.416-5.189l2.709-2.709a8.466,8.466,0,0,0,0-11.959L24.2,13.042a8.466,8.466,0,0,0-11.959,0L9.448,15.832A14.9,14.9,0,0,0,5.157,28.5,52.939,52.939,0,0,0,12.03,47.372,60.836,60.836,0,0,0,33.252,68.595a52.94,52.94,0,0,0,18.876,6.874,14.005,14.005,0,0,0,2.09.156,15.041,15.041,0,0,0,10.574-4.447l2.791-2.791a8.466,8.466,0,0,0,0-11.959Zm4.488,16.447-2.791,2.791a12.579,12.579,0,0,1-10.686,3.641,50.615,50.615,0,0,1-18.043-6.578,58.52,58.52,0,0,1-20.41-20.41A50.618,50.618,0,0,1,7.443,28.153a12.578,12.578,0,0,1,3.641-10.686l2.791-2.791a6.152,6.152,0,0,1,8.69,0L28.686,20.8a6.153,6.153,0,0,1,0,8.691L25.977,32.2a6.354,6.354,0,0,0-.675,8.149A61.295,61.295,0,0,0,40.279,55.324a6.354,6.354,0,0,0,8.149-.675l2.709-2.709a6.153,6.153,0,0,1,8.691,0l6.122,6.122A6.153,6.153,0,0,1,65.949,66.752Z" transform="translate(-5 -6.278)"/><path d="M74.944,15.466C69,9.527,61.546,5.714,54.478,5.006a1.156,1.156,0,1,0-.23,2.3c6.546.656,13.493,4.226,19.061,9.793S82.447,29.616,83.1,36.161A1.157,1.157,0,0,0,84.252,37.2c.039,0,.078,0,.116-.005A1.156,1.156,0,0,0,85.4,35.931C84.7,28.865,80.883,21.405,74.944,15.466Z" transform="translate(-16.063 -5.001)"/></g></g></svg>